<svg width="784" height="804" viewBox="0 0 784 804" fill="none" xmlns="http://www.w3.org/2000/svg">
<path d="M392 0.00101618C176.4 0.00101618 0 181.224 0 404.423C0 606.23 143.472 773.73 330.848 804.001V521.471H231.28V404.423H330.848V315.224C330.848 213.916 389.256 158.218 479.023 158.218C521.751 158.218 566.439 165.886 566.439 165.886V265.579H517.047C468.439 265.579 453.151 296.657 453.151 328.544V404.423H562.127L544.487 521.471H453.151V804.001C545.522 788.978 629.637 740.452 690.307 667.176C750.977 593.904 784.211 500.709 783.999 404.423C783.999 181.224 607.599 0.00101618 392 0.00101618Z" fill="white" fill-opacity="0.6"/>
</svg>
