<svg width="1285" height="1339" viewBox="0 0 1285 1339" fill="none" xmlns="http://www.w3.org/2000/svg">
<path fill-rule="evenodd" clip-rule="evenodd" d="M642.986 1034.61C836.391 1034.61 993.177 871.127 993.177 669.458C993.177 467.788 836.391 304.302 642.986 304.302C449.581 304.302 292.795 467.788 292.795 669.458C292.795 871.127 449.581 1034.61 642.986 1034.61ZM642.986 912.894C771.921 912.894 876.447 803.902 876.447 669.458C876.447 535.011 771.921 426.021 642.986 426.021C514.049 426.021 409.525 535.011 409.525 669.458C409.525 803.902 514.049 912.894 642.986 912.894Z" fill="white" fill-opacity="0.6"/>
<path d="M993.185 243.443C960.95 243.443 934.82 270.691 934.82 304.303C934.82 337.914 960.95 365.162 993.185 365.162C1025.42 365.162 1051.55 337.914 1051.55 304.303C1051.55 270.691 1025.42 243.443 993.185 243.443Z" fill="white" fill-opacity="0.6"/>
<path fill-rule="evenodd" clip-rule="evenodd" d="M39.1331 199.378C0.9646 277.489 0.9646 379.743 0.9646 584.248V754.654C0.9646 959.159 0.9646 1061.41 39.1331 1139.52C72.7072 1208.23 126.279 1264.09 192.173 1299.1C267.083 1338.9 365.146 1338.9 561.271 1338.9H724.694C920.818 1338.9 1018.88 1338.9 1093.79 1299.1C1159.68 1264.09 1213.26 1208.23 1246.83 1139.52C1285 1061.41 1285 959.159 1285 754.654V584.248C1285 379.743 1285 277.489 1246.83 199.378C1213.26 130.67 1159.68 74.8081 1093.79 39.7995C1018.88 0 920.818 0 724.694 0H561.271C365.146 0 267.083 0 192.173 39.7995C126.279 74.8081 72.7072 130.67 39.1331 199.378ZM724.694 121.718H561.271C461.282 121.718 393.31 121.813 340.772 126.289C289.595 130.649 263.424 138.551 245.167 148.251C201.239 171.591 165.524 208.832 143.141 254.637C133.838 273.674 126.26 300.963 122.078 354.327C117.786 409.111 117.695 479.987 117.695 584.248V754.654C117.695 858.918 117.786 929.789 122.078 984.574C126.26 1037.94 133.838 1065.23 143.141 1084.27C165.524 1130.07 201.239 1167.31 245.167 1190.65C263.424 1200.35 289.595 1208.26 340.772 1212.61C393.31 1217.09 461.282 1217.18 561.271 1217.18H724.694C824.685 1217.18 892.651 1217.09 945.192 1212.61C996.372 1208.26 1022.54 1200.35 1040.8 1190.65C1084.73 1167.31 1120.44 1130.07 1142.82 1084.27C1152.13 1065.23 1159.71 1037.94 1163.89 984.574C1168.18 929.789 1168.27 858.918 1168.27 754.654V584.248C1168.27 479.987 1168.18 409.111 1163.89 354.327C1159.71 300.963 1152.13 273.674 1142.82 254.637C1120.44 208.832 1084.73 171.591 1040.8 148.251C1022.54 138.551 996.372 130.649 945.192 126.289C892.651 121.813 824.685 121.718 724.694 121.718Z" fill="white" fill-opacity="0.6"/>
</svg>
