<svg width="1403" height="1403" viewBox="0 0 1403 1403" fill="none" xmlns="http://www.w3.org/2000/svg">
<path d="M1001.39 832.154C984.731 824.263 904.935 784.803 890.028 778.665C875.121 772.527 864.599 770.773 853.199 787.434C841.8 804.094 811.109 840.046 801.464 851.446C791.818 862.845 783.049 863.722 766.389 851.446C718.536 832.242 674.34 804.953 635.734 770.773C600.787 737.87 571.2 699.703 548.047 657.656C538.401 641.873 548.047 633.104 555.062 624.335C562.077 615.566 570.846 605.921 579.614 596.275C586.027 587.933 591.332 578.796 595.398 569.092C597.573 564.579 598.703 559.633 598.703 554.623C598.703 549.613 597.573 544.668 595.398 540.155C595.398 532.263 558.569 452.468 544.539 420.023C530.509 387.579 518.233 391.963 508.587 391.963H473.512C456.804 392.615 441.036 399.868 429.669 412.131C411.321 429.64 396.787 450.75 386.98 474.138C377.172 497.526 372.301 522.688 372.672 548.047C377.157 610.303 400.048 669.821 438.437 719.038C508.883 823.687 605.26 908.281 718.161 964.563C756.743 981.223 786.557 990.869 810.232 998.761C843.479 1008.81 878.62 1010.91 912.827 1004.9C935.546 1000.29 957.076 991.062 976.082 977.788C995.088 964.514 1011.16 947.477 1023.31 927.734C1033.42 903.352 1036.76 876.69 1032.96 850.569C1028.57 844.431 1018.05 840.046 1001.39 832.154Z" fill="white" fill-opacity="0.6"/>
<path d="M1165.37 235.003C1104.72 173.786 1032.44 125.334 952.769 92.5028C873.101 59.6716 787.665 43.1267 701.5 43.8438C587.357 44.4411 475.368 74.9756 376.718 132.398C278.068 189.82 196.211 272.12 139.321 371.077C82.4316 470.035 52.5011 582.187 52.519 696.332C52.5368 810.477 82.5025 922.619 139.423 1021.56L51.7356 1359.16L397.224 1271.47C492.737 1323.44 599.778 1350.58 708.515 1350.39H701.5C831.095 1351.23 958.005 1313.46 1066.05 1241.89C1174.09 1170.31 1258.36 1068.19 1308.13 948.524C1357.89 828.862 1370.89 697.09 1345.47 570.011C1320.04 442.932 1257.34 326.305 1165.37 235.003ZM701.5 1238.15C604.215 1238.22 508.739 1211.86 425.284 1161.86L405.993 1150.46L200.804 1203.95L255.171 1004.02L242.894 983.854C172.863 871.073 146.667 736.509 169.276 605.694C191.885 474.879 261.727 356.913 365.549 274.18C469.371 191.447 599.95 149.702 732.512 156.866C865.073 164.03 990.393 219.604 1084.69 313.044C1135.25 363.192 1175.32 422.9 1202.57 488.689C1229.82 554.477 1243.7 625.031 1243.41 696.239C1243.18 839.891 1186.01 977.593 1084.43 1079.17C982.854 1180.75 845.152 1237.92 701.5 1238.15Z" fill="white" fill-opacity="0.6"/>
</svg>
